<?xml version="1.0" standalone="no"?>
<!DOCTYPE svg PUBLIC "-//W3C//DTD SVG 20010904//EN"
 "http://www.w3.org/TR/2001/REC-SVG-20010904/DTD/svg10.dtd">
<svg version="1.0" xmlns="http://www.w3.org/2000/svg"
 width="1600.000000pt" height="1600.000000pt" viewBox="0 0 1600.000000 1600.000000"
 preserveAspectRatio="xMidYMid meet">
<metadata>
Created by potrace 1.14, written by Peter Selinger 2001-2017
</metadata>
<g transform="translate(0.000000,1600.000000) scale(0.100000,-0.100000)"
fill="#000000" stroke="none">
<path d="M9827 11524 c-3 -3 -55 -8 -114 -9 -60 -2 -134 -6 -163 -10 -74 -8
-141 -16 -165 -21 -11 -2 -40 -7 -65 -10 -25 -3 -94 -17 -155 -31 -141 -31
-140 -31 -142 -33 -2 -2 -6 -3 -10 -4 -23 -5 -161 -48 -178 -56 -11 -4 -54
-22 -95 -38 -88 -36 -236 -111 -300 -152 -25 -16 -52 -33 -60 -37 -17 -8 -18
-9 -135 -106 -104 -86 -181 -166 -259 -269 -58 -78 -131 -197 -161 -263 -10
-22 -26 -58 -36 -80 -58 -128 -109 -317 -124 -460 -2 -22 -4 -40 -5 -40 -9 0
-13 -391 -5 -495 6 -90 16 -183 21 -210 2 -14 7 -38 9 -55 7 -46 32 -154 50
-215 9 -30 17 -59 19 -65 13 -51 153 -295 186 -325 3 -3 25 -30 50 -60 98
-121 270 -293 390 -390 24 -19 48 -39 54 -45 14 -13 136 -105 166 -125 12 -8
36 -25 53 -37 17 -13 36 -23 43 -23 7 0 14 -4 16 -10 2 -5 23 -21 48 -35 45
-25 451 -228 460 -230 3 0 43 -19 90 -42 89 -43 255 -122 425 -201 149 -70
426 -211 455 -232 14 -10 27 -18 30 -17 14 2 217 -135 263 -177 20 -18 37 -32
37 -30 0 2 20 -19 45 -45 25 -26 45 -53 45 -60 0 -6 3 -11 8 -11 20 0 79 -147
89 -220 13 -103 10 -207 -12 -350 -10 -68 -73 -203 -118 -253 -16 -17 -34 -39
-40 -48 -50 -68 -303 -209 -422 -234 -11 -3 -31 -7 -45 -10 -14 -3 -36 -8 -50
-11 -120 -25 -766 -24 -985 1 -139 16 -206 26 -290 45 -27 6 -63 13 -80 16
-16 3 -68 17 -115 30 -47 14 -89 26 -95 27 -5 2 -16 6 -22 10 -7 5 -13 6 -13
3 0 -3 -20 3 -45 14 -25 11 -49 20 -53 21 -13 3 -37 11 -57 19 -19 8 -54 21
-65 25 -3 1 -17 7 -32 13 -16 7 -40 17 -55 24 -16 6 -30 12 -33 13 -3 1 -22 9
-44 18 -21 9 -41 17 -45 17 -3 1 -24 9 -46 20 -42 19 -53 17 -60 -16 -2 -10
-22 -66 -45 -124 -23 -58 -43 -112 -45 -120 -1 -8 -19 -55 -38 -105 -30 -76
-46 -122 -52 -145 -1 -3 -7 -18 -14 -35 -31 -74 -174 -514 -178 -545 -4 -35
-2 -37 44 -57 79 -35 150 -63 170 -66 10 -2 27 -7 38 -11 11 -5 31 -12 45 -16
14 -4 34 -11 45 -16 11 -4 25 -8 30 -10 72 -21 126 -37 205 -59 52 -15 103
-31 112 -36 10 -5 27 -9 39 -9 11 0 28 -4 37 -9 9 -5 31 -11 47 -14 17 -3 68
-14 115 -25 47 -11 92 -20 100 -20 8 0 26 -3 40 -5 14 -3 45 -8 70 -11 25 -3
65 -8 90 -11 164 -21 381 -29 745 -29 427 0 634 11 872 49 16 3 46 8 68 11 22
3 98 24 170 45 173 52 151 45 272 95 45 19 85 34 90 34 5 0 15 6 22 12 6 7 15
13 19 13 7 1 52 24 111 58 20 11 50 27 66 36 17 8 36 20 42 27 7 7 29 22 50
35 21 13 43 28 50 34 7 5 18 15 25 20 188 145 361 338 465 520 37 65 105 203
123 250 4 11 15 38 23 60 9 22 27 83 41 135 24 89 31 120 41 180 2 14 7 36 10
50 3 14 8 52 11 85 3 33 7 76 9 95 7 71 3 455 -5 455 -1 0 -3 20 -5 45 -4 51
-8 75 -36 209 -13 63 -44 162 -65 208 -8 17 -14 35 -14 40 0 10 -68 144 -82
161 -6 6 -7 12 -2 12 5 0 4 4 -1 8 -6 4 -26 30 -44 59 -82 131 -255 321 -411
453 -36 30 -67 57 -70 60 -3 3 -37 28 -75 55 -193 137 -332 217 -668 383 -269
134 -495 242 -504 242 -2 0 -18 9 -34 21 -16 11 -29 18 -29 16 0 -6 -309 150
-327 165 -7 6 -13 7 -13 3 0 -5 -8 -1 -17 7 -10 9 -51 32 -91 53 -39 20 -74
41 -77 46 -3 5 -23 16 -43 26 -20 9 -39 19 -42 22 -3 4 -34 26 -70 51 -91 62
-85 57 -174 146 -92 91 -163 218 -183 324 -10 53 -11 220 -2 220 6 0 7 5 4 10
-7 11 25 104 53 154 62 112 183 220 322 288 84 40 224 87 285 94 22 3 46 7 53
9 81 27 451 21 616 -9 16 -3 50 -8 75 -12 25 -3 55 -7 66 -9 11 -2 31 -6 45
-9 14 -2 48 -8 75 -12 28 -4 55 -8 60 -10 37 -9 77 -17 119 -25 164 -29 402
-98 531 -154 17 -7 50 -21 75 -31 25 -9 49 -21 55 -26 5 -4 19 -8 31 -8 13 0
25 -4 29 -10 22 -35 67 44 131 230 51 148 86 247 184 510 39 107 72 200 73
205 1 6 4 12 7 15 3 3 15 36 28 74 22 69 19 96 -12 96 -7 0 -54 17 -106 39
-52 21 -131 50 -175 65 -44 15 -87 30 -95 33 -8 4 -19 7 -25 8 -5 0 -17 4 -25
7 -36 14 -276 70 -365 84 -16 3 -41 7 -55 10 -14 3 -38 7 -55 10 -16 3 -41 7
-55 10 -29 6 -68 11 -130 19 -25 3 -56 7 -70 10 -14 2 -50 7 -80 10 -30 3 -68
7 -85 9 -16 3 -66 7 -110 11 -44 3 -105 8 -136 11 -30 3 -110 6 -178 8 -67 2
-124 6 -127 9 -4 3 -17 2 -30 -3 -14 -6 -26 -6 -29 0 -4 7 -13 6 -25 0 -12 -6
-21 -7 -25 0 -3 6 -15 6 -29 0 -14 -5 -27 -5 -33 1 -5 5 -12 6 -16 3z"/>
<path d="M5577 11404 c-4 -4 -29 -6 -57 -5 -27 1 -51 -2 -51 -6 -3 -16 -7
-343 -14 -1053 -4 -404 -9 -890 -11 -1080 -2 -190 -4 -352 -4 -360 0 -20 0
-43 -3 -123 -1 -37 2 -67 6 -67 5 0 5 -5 2 -10 -4 -6 -8 -261 -10 -568 -7
-1021 -24 -1626 -49 -1832 -3 -19 -8 -60 -12 -90 -3 -30 -11 -61 -16 -67 -7
-9 -7 -13 0 -13 16 0 -35 -158 -71 -218 -53 -89 -188 -202 -259 -218 -82 -18
-290 -23 -448 -10 -47 4 -105 9 -130 11 -25 2 -45 4 -45 5 0 1 -9 3 -20 5 -11
1 -31 5 -45 9 -75 18 -76 18 -108 -9 -18 -15 -32 -34 -32 -44 0 -9 -4 -21 -8
-26 -10 -11 -70 -219 -97 -335 -2 -8 -4 -15 -5 -15 -1 0 -3 -9 -5 -20 -2 -11
-8 -35 -13 -52 -6 -18 -9 -33 -6 -33 3 0 0 -8 -5 -17 -5 -10 -12 -31 -15 -48
-3 -16 -10 -48 -16 -70 -6 -22 -13 -51 -16 -65 -3 -14 -8 -34 -11 -45 -8 -23
-10 -31 -17 -64 -3 -13 -10 -39 -17 -58 -15 -47 -4 -94 29 -125 35 -33 105
-70 162 -87 25 -7 52 -16 60 -19 18 -6 35 -10 75 -17 17 -3 66 -12 110 -20 84
-16 133 -23 225 -31 181 -15 330 -24 481 -28 64 -2 121 -6 127 -10 6 -3 13 -2
17 3 4 7 15 7 30 1 15 -6 25 -6 25 0 0 5 12 5 29 0 16 -4 32 -6 35 -3 2 3 35
6 73 8 37 2 79 6 93 8 68 12 106 20 115 27 6 3 33 15 60 25 90 33 303 154 351
200 6 5 26 21 44 35 51 39 230 221 230 234 0 3 8 15 18 25 100 111 285 461
318 601 11 50 11 50 14 53 3 4 9 41 15 97 4 30 9 73 11 95 20 170 35 903 38
1777 0 263 3 478 7 478 3 0 2 24 -1 53 -3 28 -3 69 1 90 3 20 2 37 -2 37 -5 0
-6 7 -3 15 10 25 10 153 0 148 -5 -4 -6 0 -1 7 4 7 9 384 12 839 2 454 5 1101
7 1436 2 351 -1 618 -6 628 -5 10 -13 15 -19 12 -10 -7 -35 -7 -182 -3 -53 2
-97 -1 -97 -5 0 -5 -4 -6 -8 -3 -5 3 -35 5 -68 5 -32 1 -77 2 -99 2 -22 1 -47
1 -55 0 -17 -1 -26 -1 -158 2 -50 1 -92 -2 -92 -6 0 -5 -4 -5 -10 -2 -5 3 -35
5 -67 5 -80 -1 -124 0 -148 4 -11 2 -29 0 -40 -4 -11 -4 -29 -4 -40 0 -11 4
-34 4 -52 0 -17 -4 -35 -4 -40 1 -5 5 -12 6 -16 3z"/>
<path d="M2750 9729 c-30 -16 -62 -34 -70 -39 -8 -5 -55 -33 -105 -61 -208
-120 -333 -194 -382 -226 -29 -18 -55 -33 -58 -33 -3 0 -42 -22 -86 -50 -44
-27 -82 -50 -84 -50 -2 0 -40 -22 -84 -50 -44 -27 -83 -50 -85 -50 -3 0 -31
-17 -63 -39 -32 -21 -68 -41 -80 -45 -13 -4 -23 -12 -23 -17 0 -5 -4 -9 -10
-9 -5 0 -51 -25 -102 -56 -51 -31 -111 -67 -133 -79 -22 -13 -100 -59 -173
-104 -73 -44 -137 -81 -143 -81 -5 0 -9 -4 -9 -10 0 -5 -6 -10 -14 -10 -8 0
-21 -6 -28 -13 -7 -7 -20 -16 -28 -20 -8 -4 -37 -21 -65 -37 -27 -17 -65 -38
-82 -47 -18 -9 -33 -20 -33 -25 0 -4 -5 -8 -11 -8 -7 0 -39 -17 -73 -37 -130
-80 -253 -153 -296 -176 -19 -11 -37 -22 -40 -26 -3 -3 -16 -12 -29 -19 -13
-8 -39 -23 -58 -33 -53 -30 -87 -53 -94 -62 -4 -5 -6 -46 -6 -91 0 -45 -2 -86
-5 -92 -4 -5 -3 -16 2 -23 4 -8 5 -25 1 -40 -3 -14 -5 -39 -4 -56 5 -47 4
-108 -2 -113 -2 -3 0 -13 6 -23 7 -14 6 -19 -2 -19 -24 0 14 -30 116 -89 58
-34 107 -61 109 -61 3 0 42 -22 88 -50 46 -27 89 -50 96 -50 6 0 12 -4 12 -10
0 -5 4 -10 10 -10 5 0 33 -14 62 -31 29 -17 141 -81 248 -142 210 -118 238
-134 315 -179 28 -16 61 -34 75 -41 14 -6 27 -14 30 -17 3 -3 21 -13 40 -24
19 -10 55 -30 80 -44 72 -40 101 -57 165 -92 33 -18 68 -40 78 -48 9 -8 17
-12 17 -8 0 4 12 -1 28 -12 15 -11 50 -32 77 -46 28 -15 64 -35 80 -45 17 -10
61 -34 98 -55 37 -20 82 -45 100 -55 18 -10 118 -66 222 -125 105 -58 197
-111 205 -116 8 -5 40 -22 70 -39 30 -16 91 -50 135 -75 l80 -46 25 29 c43 49
120 154 120 165 0 3 9 16 20 28 10 13 19 26 19 31 0 4 12 20 26 35 14 15 25
32 25 39 0 6 6 18 13 25 7 7 22 29 33 48 10 19 22 37 25 40 3 3 14 21 24 40
10 19 21 37 24 40 4 3 15 22 25 44 15 32 16 40 5 51 -12 10 -229 139 -349 208
-19 10 -47 28 -62 38 -14 11 -28 19 -31 19 -6 0 -179 102 -187 110 -4 4 -37
23 -95 54 -11 6 -27 16 -35 22 -8 6 -40 25 -70 41 -30 17 -114 65 -187 107
-73 42 -137 76 -142 76 -5 0 -11 3 -13 8 -4 9 -34 25 -333 177 -133 67 -250
124 -260 127 -11 4 -65 23 -120 43 -55 20 -111 40 -125 44 -14 5 -45 18 -70
31 l-44 22 25 14 c14 7 97 43 185 79 178 74 306 134 315 148 3 5 9 8 13 8 8
-1 129 59 136 68 3 3 19 13 35 21 17 8 73 39 125 69 52 29 115 65 140 79 25
14 57 33 72 43 14 11 28 19 31 19 3 0 60 34 127 75 67 41 123 75 125 75 2 0
31 18 64 40 33 22 65 40 71 40 5 0 10 3 10 8 0 4 23 21 51 37 71 42 75 44 159
99 41 27 77 53 78 58 2 4 8 6 13 2 5 -3 12 2 15 10 3 9 11 16 16 16 11 0 181
120 186 132 2 4 8 8 12 8 5 0 24 14 42 32 l32 31 -23 41 c-13 23 -33 59 -45
81 -11 22 -25 44 -29 50 -4 5 -48 72 -98 148 -49 76 -95 145 -102 152 -6 8
-23 30 -37 49 -14 20 -27 35 -30 35 -3 0 -30 -13 -60 -30z"/>
<path d="M13099 9691 c-54 -58 -75 -84 -94 -113 -5 -9 -32 -49 -60 -90 -68
-100 -164 -293 -158 -317 2 -10 16 -24 29 -31 13 -8 24 -17 24 -22 0 -4 5 -8
11 -8 6 0 29 -13 52 -29 45 -30 402 -245 502 -301 33 -19 62 -36 65 -39 3 -3
30 -19 60 -35 30 -16 62 -35 70 -42 8 -7 20 -14 25 -15 6 -1 19 -7 30 -14 42
-26 146 -85 150 -85 2 0 28 -14 57 -31 48 -29 78 -45 203 -112 22 -12 42 -24
45 -27 3 -3 37 -21 75 -40 39 -19 72 -37 75 -40 22 -24 274 -138 395 -179 83
-28 157 -54 165 -58 8 -3 18 -5 23 -5 17 4 5 -18 -22 -37 -30 -22 -159 -83
-201 -96 -14 -4 -35 -16 -48 -26 -13 -10 -36 -21 -52 -24 -17 -4 -32 -10 -35
-14 -2 -5 -31 -21 -62 -37 -32 -16 -60 -31 -63 -34 -3 -3 -32 -18 -65 -35 -33
-16 -61 -33 -63 -37 -2 -5 -10 -8 -18 -8 -8 0 -14 -5 -14 -11 0 -5 -4 -7 -10
-4 -5 3 -10 2 -10 -3 0 -5 -8 -12 -17 -15 -21 -7 -97 -50 -292 -164 -78 -46
-143 -83 -146 -83 -3 0 -11 -5 -18 -11 -7 -5 -70 -45 -142 -87 -71 -42 -132
-78 -135 -81 -3 -4 -18 -13 -35 -21 -16 -8 -32 -17 -35 -20 -3 -3 -49 -33
-103 -65 -54 -33 -110 -68 -125 -78 -15 -9 -35 -20 -44 -23 -10 -4 -18 -10
-18 -15 0 -5 -6 -9 -13 -9 -7 0 -23 -9 -35 -20 -12 -11 -24 -20 -27 -20 -10 0
-170 -111 -182 -128 -11 -13 -6 -27 24 -81 43 -76 187 -310 203 -328 5 -7 10
-17 10 -23 0 -5 5 -10 10 -10 6 0 10 -7 10 -15 0 -8 5 -15 10 -15 6 0 10 -5
10 -10 0 -11 44 -83 68 -112 15 -17 36 -12 69 19 7 6 22 15 33 18 11 3 20 11
20 16 0 5 5 9 10 9 9 0 74 37 205 117 11 7 28 16 38 19 9 3 17 10 17 15 0 5 4
9 10 9 5 0 40 19 77 42 38 22 82 49 99 59 17 9 42 23 55 31 13 7 26 15 29 18
8 8 43 29 60 37 8 3 34 19 57 35 23 15 44 28 47 28 5 0 129 72 136 80 5 5 12
9 89 52 20 11 48 29 62 39 14 10 29 16 33 12 3 -3 6 -1 6 5 0 7 7 12 15 12 8
0 15 4 15 10 0 5 11 12 25 16 14 3 25 9 25 14 0 4 18 15 40 25 22 10 40 22 40
27 0 4 4 8 9 8 4 0 39 18 77 41 74 43 80 47 160 97 29 17 56 32 59 32 3 0 11
5 18 10 7 6 55 36 107 67 52 30 107 63 122 72 14 9 52 31 85 50 32 18 61 39
65 45 4 6 8 7 8 3 0 -5 13 1 29 12 16 12 34 21 40 21 6 0 11 5 11 10 0 6 7 10
15 10 8 0 15 5 15 10 0 6 9 10 19 10 11 0 21 4 23 8 3 8 154 102 163 102 2 0
24 14 48 30 25 17 47 30 50 30 3 0 29 16 58 35 30 19 59 35 65 35 7 0 14 4 16
9 2 5 18 17 37 28 22 12 35 27 36 41 1 12 -1 22 -4 22 -3 0 -6 44 -7 98 -1
140 -13 326 -22 333 -4 4 -27 18 -52 31 -25 14 -62 35 -82 47 -97 55 -117 66
-178 99 -36 19 -82 46 -102 59 -21 13 -38 20 -38 16 0 -5 -4 -3 -8 2 -8 13
-348 205 -361 205 -5 0 -11 4 -13 8 -2 4 -66 43 -143 85 -77 43 -158 88 -180
101 -61 35 -156 88 -195 108 -19 10 -42 23 -50 28 -32 20 -172 100 -176 100
-2 0 -50 26 -107 59 -56 32 -122 70 -147 83 -25 14 -62 35 -82 47 -59 33 -110
61 -153 84 -22 12 -42 24 -45 27 -3 3 -21 13 -40 24 -152 81 -191 102 -235
128 -27 16 -58 32 -67 35 -10 3 -18 9 -18 14 0 5 -9 9 -19 9 -11 0 -21 3 -23
8 -3 8 -86 52 -97 52 -5 0 -32 -26 -62 -59z"/>
</g>
</svg>
